<svg xmlns="http://www.w3.org/2000/svg" width="225.957" height="201.037" viewBox="0 0 225.957 201.037">
  <g id="react" transform="translate(-15.243 -14.514)">
    <path id="Subtraction_1" data-name="Subtraction 1" d="M-1828.4-7269.179c-5.52,0-11.751-1.663-18.518-4.941a98.138,98.138,0,0,1-20.827-14.094c-2.081-1.8-4.136-3.672-6.108-5.575-1.6,1.552-3.19,3.014-4.714,4.346a100.492,100.492,0,0,1-21.9,14.924c-7.182,3.485-13.788,5.252-19.635,5.253a21.306,21.306,0,0,1-10.782-2.651,20.6,20.6,0,0,1-7.293-7.394,36.254,36.254,0,0,1-4.239-11.527c-1.806-8.926-1.522-20.167.821-32.507.52-2.717,1.118-5.431,1.776-8.068-2.062-.588-4.119-1.23-6.112-1.909-12.328-4.214-22.7-9.824-30-16.225-7.4-6.491-11.315-13.525-11.315-20.341a20.588,20.588,0,0,1,2.761-10.01,36.265,36.265,0,0,1,7.868-9.431c6.831-6.023,16.71-11.393,28.57-15.528,2.621-.913,5.435-1.8,8.364-2.63-.619-2.474-1.181-4.992-1.671-7.484-2.461-12.58-2.849-24.038-1.121-33.136a36.839,36.839,0,0,1,4.153-11.753,20.306,20.306,0,0,1,7.276-7.5,20.918,20.918,0,0,1,10.622-2.634c5.912,0,12.634,1.865,19.979,5.543a106.233,106.233,0,0,1,22.538,15.733c1.241,1.1,2.5,2.268,3.744,3.458,1.832-1.769,3.725-3.505,5.626-5.163a101.541,101.541,0,0,1,21.323-14.635c6.938-3.422,13.295-5.157,18.893-5.157a20.38,20.38,0,0,1,10.319,2.559,20.911,20.911,0,0,1,7.584,7.88,38.764,38.764,0,0,1,4.285,12.43c1.76,9.674,1.248,21.79-1.481,35.039-.345,1.66-.724,3.329-1.125,4.959,2.424.7,4.872,1.469,7.275,2.292,12.12,4.172,22.23,9.578,29.239,15.632a36.843,36.843,0,0,1,8.09,9.482,20.3,20.3,0,0,1,2.845,10.054,20.913,20.913,0,0,1-3.038,10.506,38.773,38.773,0,0,1-8.627,9.922c-7.5,6.357-18.253,11.967-31.093,16.221-1.291.428-2.665.857-4.2,1.313.527,2.117.982,4.149,1.354,6.038,2.531,12.781,2.874,24.571.991,34.1-1.909,9.659-6.036,16.568-11.935,19.983A20.8,20.8,0,0,1-1828.4-7269.179Zm10.813-60.3h0a225.219,225.219,0,0,1-30.6,4.718,226.74,226.74,0,0,1-18.938,24.048c1.9,1.826,3.808,3.569,5.682,5.181a91.191,91.191,0,0,0,18.275,12.5c5.558,2.762,10.647,4.222,14.717,4.222a11.43,11.43,0,0,0,5.779-1.352c3.464-2.005,6.091-6.986,7.4-14.026,1.524-8.22,1.148-18.532-1.086-29.822-.35-1.76-.761-3.6-1.223-5.466Zm-112.873.433h0c-.622,2.5-1.177,5.023-1.651,7.5-3.866,20.364-1.435,36.947,6.05,41.265a11.887,11.887,0,0,0,5.967,1.356,30.225,30.225,0,0,0,9.88-1.953c7.884-2.785,16.63-8.261,25.294-15.836,1.454-1.272,2.9-2.606,4.305-3.964a234.449,234.449,0,0,1-19.394-23.964,226.977,226.977,0,0,1-30.451-4.408Zm42.97,5.157c4.443,5.854,9.017,11.327,13.6,16.269a205.4,205.4,0,0,0,13.264-16.316c-4.483.2-9.072.3-13.639.3-4.435,0-8.884-.086-13.221-.255Zm-18.31-63.98c-3.419,5.93-6.652,12.059-9.61,18.215,2.96,6.145,6.2,12.27,9.64,18.205,3.453,5.966,7.168,11.859,11.043,17.517,6.611.429,13.495.647,20.458.647s13.938-.244,20.693-.726c3.8-5.715,7.449-11.6,10.839-17.49,3.44-5.958,6.708-12.111,9.711-18.29-3.036-6.119-6.313-12.219-9.741-18.13-3.409-5.895-7.072-11.743-10.887-17.383-6.79-.518-13.726-.78-20.614-.78-6.857,0-13.779.261-20.574.774-3.845,5.634-7.532,11.5-10.957,17.442Zm-14.731,29.564c-2.863,6.8-5.327,13.507-7.323,19.949a206.693,206.693,0,0,0,20.824,3.349c-2.452-3.806-4.838-7.711-7.094-11.606-2.205-3.809-4.361-7.743-6.406-11.692Zm92.708-.345c-2.1,4.037-4.3,8.065-6.552,11.972-2.233,3.872-4.567,7.74-6.937,11.5a205.478,205.478,0,0,0,21.079-3.592,205.313,205.313,0,0,0-7.59-19.876Zm-109.27-39.538h0c-2.6.735-5.22,1.559-7.777,2.446-19.573,6.826-32.724,17.216-32.724,25.855,0,4,3,8.775,8.434,13.433,6.351,5.436,15.464,10.277,26.354,14,1.809.617,3.685,1.2,5.577,1.747a234.578,234.578,0,0,1,11.15-28.942,231.588,231.588,0,0,1-11.013-28.537Zm125.768.142a226.126,226.126,0,0,1-11,28.209,226.7,226.7,0,0,1,11.443,28.625c1.378-.41,2.62-.8,3.795-1.187,10.744-3.56,19.893-8.141,26.457-13.247a33.507,33.507,0,0,0,7.181-7.3,12.521,12.521,0,0,0,2.5-6.938,11.86,11.86,0,0,0-2.319-6.516,31.519,31.519,0,0,0-6.671-6.88c-6.089-4.812-14.621-9.184-24.673-12.643-2.091-.722-4.351-1.436-6.717-2.122h0Zm-29.961-6.01c2.368,3.711,4.68,7.513,6.871,11.3,2.228,3.845,4.414,7.8,6.5,11.758a205.9,205.9,0,0,0,7.233-19.456c-6.494-1.484-13.426-2.7-20.6-3.6Zm-65.951-.019c-7.161.9-14.053,2.078-20.484,3.518,1.965,6.334,4.381,12.913,7.181,19.552,2.028-3.932,4.174-7.864,6.378-11.685s4.533-7.652,6.926-11.385Zm78.859-56.508c-8.63,0-21.274,6.521-33.823,17.443-1.779,1.553-3.527,3.157-5.2,4.767a226.46,226.46,0,0,1,19.1,23.838,231.029,231.029,0,0,1,30.212,4.772c.366-1.492.708-3,1.017-4.493,2.283-11.086,2.886-21.3,1.742-29.536a33.523,33.523,0,0,0-2.738-9.868,12.521,12.521,0,0,0-4.759-5.633A11.018,11.018,0,0,0-1828.377-7460.585Zm-103.5,43.758c.458,2.328.981,4.671,1.553,6.963a235.44,235.44,0,0,1,30.152-4.686,231.21,231.21,0,0,1,19.248-23.821c-1.164-1.112-2.3-2.166-3.39-3.129a99.617,99.617,0,0,0-19.979-14.078c-6.11-3.136-11.665-4.793-16.063-4.793a11.578,11.578,0,0,0-5.851,1.364,11.861,11.861,0,0,0-4.477,5.272,31.531,31.531,0,0,0-2.612,9.221c-1.114,7.681-.623,17.255,1.418,27.689Zm57.606,1.09c4.452,0,8.964.106,13.411.316a206.207,206.207,0,0,0-13.3-16.051c-4.524,4.882-9.035,10.281-13.408,16.046C-1883.154-7415.633-1878.68-7415.737-1874.274-7415.737Z" transform="translate(2002.489 7484.73)" fill="#53c1de"/>
    <path id="Path_2325" data-name="Path 2325" d="M128.221,94.665a20.178,20.178,0,1,1-20.177,20.177,20.177,20.177,0,0,1,20.177-20.177" fill="#53c1de"/>
  </g>
</svg>
