<svg xmlns="http://www.w3.org/2000/svg" xmlns:xlink="http://www.w3.org/1999/xlink" width="1920.001" height="318.617" viewBox="0 0 1920.001 318.617">
  <defs>
    <linearGradient id="linear-gradient" x1="0.445" y1="0.251" x2="0.956" y2="3.513" gradientUnits="objectBoundingBox">
      <stop offset="0" stop-color="#897dff"/>
      <stop offset="1" stop-color="#9542ff"/>
    </linearGradient>
    <linearGradient id="linear-gradient-2" x1="1.044" y1="-0.397" x2="0.512" y2="0.483" gradientUnits="objectBoundingBox">
      <stop offset="0" stop-color="#9542ff"/>
      <stop offset="1" stop-color="#897dff"/>
    </linearGradient>
    <linearGradient id="linear-gradient-3" x1="0.468" y1="-0.055" x2="0.907" y2="2.874" xlink:href="#linear-gradient"/>
  </defs>
  <g id="Group_150" data-name="Group 150" transform="translate(0 -2598)">
    <g id="Group_149" data-name="Group 149" transform="translate(0 -648)">
      <path id="Path_125" data-name="Path 125" d="M2045.487,3020.768q-59.7-9.315-119.74-14.625c-10.016-.78-20-1.776-30.006-2.492l-30.025-2-30.033-1.588-30.042-1.088c-5-.217-10.011-.274-15.02-.351l-15.017-.287c-5.006-.078-10.005-.275-15.012-.252l-15.015-.016c-10.01,0-20.01-.095-30.017.188l-30,.517-29.977,1.056-7.491.263-7.487.413-14.969.852c-19.965.879-39.884,2.582-59.8,3.995-9.951.864-19.89,1.888-29.83,2.823l-14.91,1.394-14.882,1.675-29.754,3.391-29.667,4.062-14.83,2.042c-4.942.675-9.863,1.519-14.8,2.271l-29.573,4.633c-4.938.72-9.836,1.67-14.746,2.552l-14.726,2.678-14.725,2.675c-4.91.884-9.819,1.755-14.695,2.818l-29.336,5.94-14.664,2.98-14.59,3.331-59.011,13.437c-10.01,2.188-19.989,4.523-30.022,6.588l-30.163,5.9-15.081,2.949c-5.027.978-10.093,1.751-15.138,2.637l-30.3,5.1-7.581,1.232-7.607,1.065-15.215,2.128-15.212,2.126c-5.072.688-10.132,1.48-15.225,2.016l-30.511,3.538c-5.088.573-10.165,1.228-15.263,1.68l-15.3,1.34-30.587,2.659-30.632,2-15.313.986-15.334.608-30.659,1.15c-36.495.893-72.991.907-109.444-.148-5.549.311-10.689.579-15.385.809-9.473-.317-18.939-.855-28.4-1.331l-15.292-.817-15.277-1.078-15.271-1.077-7.634-.549-7.625-.675c-10.168-.893-20.326-1.862-30.477-2.845q-60.892-6.236-121.178-16.579c-40.146-6.963-80.052-15.165-119.488-25.167q-29.586-7.455-58.767-16.308c-9.708-3.01-19.4-6.06-29-9.366-4.8-1.65-9.6-3.325-14.358-5.086-4.746-1.8-9.525-3.539-14.133-5.668v206.8h1920V3044.571c-19.6-5.156-39.358-9.431-59.169-13.322C2085.263,3027.3,2065.388,3023.872,2045.487,3020.768Z" transform="translate(-244.222 333.953)" fill="url(#linear-gradient)"/>
      <g id="Group_55" data-name="Group 55" transform="translate(-99.484 1202.902)">
        <path id="Path_123" data-name="Path 123" d="M99.484,2109.951c4.854,1.43,9.816,2.453,14.757,3.535s9.891,2.1,14.85,3.083c4.95,1.01,9.929,1.912,14.881,2.882l14.91,2.692c19.885,3.512,39.821,6.617,59.768,9.5l29.955,4.034,14.991,1.854,7.49.924,7.507.817c10.014,1.053,19.989,2.3,30.011,3.214,10.01.984,20.006,2.023,30.034,2.789,10.022.8,20.012,1.811,30.045,2.445l15.026,1.082,7.512.535,7.521.417c10.031.5,20.038,1.222,30.064,1.695l30.067,1.309c20.061.519,40.09,1.26,60.136,1.384l15.025.2,15.029-.059,15.022-.066c5.007-.022,10.011.054,15.019-.088l30.025-.582c5-.058,10-.256,15-.463l15-.586c20-.574,39.965-1.9,59.93-2.926l29.907-2.227,14.947-1.107,14.927-1.36,29.844-2.738,29.773-3.384,14.881-1.7c4.958-.59,9.9-1.325,14.85-1.949l29.69-3.921c4.955-.6,9.875-1.452,14.808-2.2l14.793-2.309,14.79-2.308,7.4-1.153,7.366-1.319,29.475-5.219c4.908-.888,9.838-1.664,14.729-2.644l14.67-2.952,29.339-5.9c9.759-2.063,19.461-4.391,29.192-6.572l59.349-13.215,15-3.335,15.074-2.983,30.16-5.9c5.021-1.009,10.079-1.825,15.135-2.655l15.161-2.506,15.159-2.5c5.054-.827,10.1-1.718,15.178-2.378l30.43-4.272c5.075-.679,10.132-1.5,15.223-2.062l15.271-1.693,30.537-3.356,30.605-2.668,15.3-1.309,15.33-.944c10.224-.582,20.436-1.251,30.658-1.759,20.466-.675,40.9-1.73,61.375-1.774l15.345-.141,7.671-.06,7.674.093,30.68.373c20.447.6,40.883,1.235,61.285,2.594l15.3.9c5.1.272,10.191.766,15.285,1.139l15.276,1.234c5.089.426,10.179.83,15.257,1.4l30.471,3.179,30.39,3.78,30.3,4.409c10.084,1.542,20.144,3.263,30.2,4.947,10.045,1.753,20.055,3.74,30.071,5.6q15,2.99,29.94,6.185c19.879,4.515,39.723,9.069,59.362,14.465,9.843,2.582,19.627,5.4,29.392,8.229,9.736,2.97,19.467,5.9,29.123,9.092,19.291,6.4,38.484,13.147,57.089,21.256-19.6-5.156-39.357-9.431-59.167-13.322-19.792-3.948-39.666-7.377-59.567-10.482q-59.7-9.315-119.742-14.625c-10.015-.78-20-1.776-30-2.492l-30.025-2-30.032-1.589-30.042-1.086c-5-.218-10.013-.275-15.02-.353l-15.019-.286c-5-.078-10-.276-15.011-.252l-15.017-.015c-10.008,0-20.009-.094-30.016.189l-30,.517-29.978,1.056-7.49.263-7.487.415-14.971.85c-19.964.879-39.883,2.582-59.8,3.995-9.951.864-19.888,1.888-29.828,2.823l-14.91,1.393-14.884,1.675-29.753,3.391-29.669,4.062-14.828,2.042c-4.942.675-9.863,1.52-14.8,2.271l-29.573,4.633c-4.938.719-9.837,1.67-14.748,2.552l-14.726,2.678-14.723,2.675c-4.91.884-9.821,1.756-14.7,2.82l-29.335,5.939-14.664,2.979L1125.369,2138l-59.011,13.437c-10.008,2.188-19.987,4.523-30.022,6.589l-30.161,5.9-15.082,2.95c-5.027.977-10.092,1.751-15.136,2.636l-30.3,5.1-7.583,1.232-7.608,1.065-15.214,2.128-15.212,2.127c-5.074.688-10.134,1.48-15.226,2.015l-30.511,3.538c-5.086.573-10.163,1.228-15.262,1.68l-15.3,1.341-30.587,2.659-30.632,2-15.313.986-15.334.608-30.659,1.15c-40.9,1-81.791.908-122.626-.57-10.208-.3-20.41-.9-30.607-1.41l-15.293-.818-15.277-1.077-15.272-1.077-7.634-.55-7.625-.677c-10.166-.893-20.325-1.861-30.475-2.845q-60.893-6.236-121.178-16.579c-40.146-6.964-80.052-15.164-119.49-25.167q-29.584-7.455-58.767-16.309c-9.708-3.009-19.394-6.059-29-9.365-4.8-1.65-9.6-3.325-14.358-5.086C108.872,2113.823,104.09,2112.08,99.484,2109.951Z" transform="translate(0)" fill="url(#linear-gradient-2)"/>
        <path id="Path_124" data-name="Path 124" d="M1196.992,2060.826l-7.84,1.3c-5.055.83-10.112,1.647-15.133,2.654l-30.161,5.9-15.074,2.983-15,3.336-59.347,13.216c-9.733,2.181-19.435,4.51-29.194,6.572l-29.339,5.9-14.67,2.953c-4.891.979-9.821,1.754-14.729,2.642l-29.474,5.221-7.368,1.319-7.394,1.153-14.791,2.306-14.793,2.31c-4.933.75-9.852,1.6-14.808,2.2l-29.69,3.919c-4.953.625-9.892,1.359-14.85,1.948l-14.881,1.7-29.773,3.385-29.844,2.737-14.927,1.361-14.947,1.108-29.907,2.227c-19.964,1.022-39.931,2.35-59.93,2.926l-15,.586c-5,.207-10,.406-15,.463l-30.025.582c-5.007.143-10.011.065-15.019.086l-15.022.067-15.029.06-15.025-.2c-20.046-.124-40.075-.865-60.136-1.382l-30.067-1.311c-10.025-.47-20.031-1.189-30.064-1.693l-7.521-.418-7.512-.534-15.026-1.082c-10.033-.636-20.021-1.647-30.045-2.446-10.028-.766-20.023-1.806-30.034-2.789-10.022-.914-20-2.163-30.009-3.213l-7.507-.817-7.492-.925-14.991-1.853-29.954-4.033c-19.948-2.887-39.885-5.992-59.77-9.5l-14.91-2.692c-4.952-.97-9.931-1.873-14.879-2.882q-7.441-1.467-14.851-3.083c-4.941-1.082-9.9-2.1-14.757-3.535,4.606,2.13,9.388,3.873,14.133,5.668,4.763,1.763,9.555,3.436,14.358,5.086,9.606,3.306,19.292,6.355,29,9.366q29.175,8.818,58.768,16.308c39.436,10,79.342,18.2,119.488,25.168q60.245,10.283,121.178,16.579c10.151.983,20.309,1.952,30.475,2.845l7.626.675,7.632.549,15.272,1.077,15.277,1.077,15.293.817c9.464.476,18.93,1.014,28.4,1.332,101.121-4.966,406.688-27.087,620.6-127.269Z" transform="translate(0 9.712)" fill="url(#linear-gradient-3)"/>
      </g>
    </g>
  </g>
</svg>
